<svg width="40" height="44" viewBox="0 0 40 44" fill="none" xmlns="http://www.w3.org/2000/svg">
<rect x="0.5" y="2.5" width="39" height="39" rx="19.5" fill="#FFCACC" stroke="#DBC4F0"/>
<path d="M22.8 10.98C22.8 11.8067 22.5733 12.5467 22.12 13.2C21.6667 13.84 21.0467 14.3733 20.26 14.8C20.7667 15.1467 21.1667 15.5733 21.46 16.08C21.7667 16.5733 21.92 17.12 21.92 17.72C21.92 18.44 21.7 19.1533 21.26 19.86C20.8333 20.5533 20.26 21.1733 19.54 21.72C18.82 22.2533 18 22.6867 17.08 23.02C16.16 23.3533 15.22 23.52 14.26 23.52C13.22 23.52 12.3067 23.32 11.52 22.92C10.7467 22.5333 10.14 21.98 9.7 21.26C9.83333 20.86 10.0067 20.3667 10.22 19.78C10.4467 19.18 10.6933 18.5533 10.96 17.9C11.2267 17.2333 11.4933 16.5733 11.76 15.92C12.04 15.2667 12.3 14.68 12.54 14.16C13.0467 13.0267 13.5 12.0867 13.9 11.34C14.3 10.5933 14.6667 10 15 9.56C14.2667 9.78667 13.6 10.0467 13 10.34C12.4 10.62 11.96 10.8933 11.68 11.16C11.56 11.08 11.4333 10.96 11.3 10.8C11.18 10.64 11.06 10.4667 10.94 10.28C10.8333 10.08 10.74 9.88 10.66 9.68C10.5933 9.48 10.5533 9.3 10.54 9.14C10.8867 8.9 11.3333 8.67333 11.88 8.46C12.44 8.23333 13.0467 8.04 13.7 7.88C14.3533 7.72 15.02 7.59333 15.7 7.5C16.3933 7.40667 17.0533 7.36 17.68 7.36C19.28 7.36 20.5333 7.68 21.44 8.32C22.3467 8.96 22.8 9.84667 22.8 10.98ZM15.18 15.76C14.9267 15.64 14.6933 15.46 14.48 15.22C14.1733 15.9 13.88 16.5667 13.6 17.22C13.3333 17.8733 13.0933 18.48 12.88 19.04C12.6667 19.6 12.4933 20.0867 12.36 20.5C12.2267 20.9133 12.1533 21.2133 12.14 21.4C12.3267 21.5067 12.5467 21.5867 12.8 21.64C13.0667 21.6933 13.3933 21.72 13.78 21.72C14.6867 21.72 15.5533 21.5933 16.38 21.34C17.2067 21.0867 17.9333 20.7467 18.56 20.32C19.1867 19.88 19.6867 19.38 20.06 18.82C20.4333 18.26 20.62 17.6733 20.62 17.06C20.62 16.18 20.24 15.5467 19.48 15.16C18.44 15.5867 17.2667 15.8 15.96 15.8C15.7733 15.8 15.6267 15.8 15.52 15.8C15.4267 15.8 15.3133 15.7867 15.18 15.76ZM19.06 8.82C18.78 8.82 18.48 8.84 18.16 8.88C17.8533 8.90667 17.5267 8.95333 17.18 9.02C17.2333 9.07333 17.2733 9.13333 17.3 9.2C17.34 9.25333 17.3733 9.31333 17.4 9.38C17.28 9.54 17.1333 9.77333 16.96 10.08C16.7867 10.3867 16.5933 10.7467 16.38 11.16C16.1667 11.56 15.94 12.0067 15.7 12.5C15.4733 12.9933 15.24 13.5 15 14.02C15.2267 13.9667 15.5 13.9267 15.82 13.9C16.1533 13.86 16.48 13.84 16.8 13.84C16.9733 13.84 17.14 13.8467 17.3 13.86C17.4733 13.8733 17.64 13.8933 17.8 13.92C18.44 13.8133 19.0133 13.66 19.52 13.46C20.04 13.2467 20.4867 13.0067 20.86 12.74C21.2333 12.46 21.52 12.1533 21.72 11.82C21.92 11.4867 22.02 11.1333 22.02 10.76C22.02 10.12 21.7667 9.64 21.26 9.32C20.7533 8.98667 20.02 8.82 19.06 8.82Z" fill="#FAF3F0"/>
<path d="M24.38 38.28C24.0733 38.44 23.7467 38.52 23.4 38.52C22.9733 38.4667 22.56 38.36 22.16 38.2C21.7733 38.04 21.4867 37.8467 21.3 37.62C21.1933 36.9667 21.1067 36.3667 21.04 35.82C20.9733 35.2733 20.92 34.76 20.88 34.28C20.84 33.7867 20.8133 33.32 20.8 32.88C20.7867 32.4267 20.78 31.9733 20.78 31.52C20.78 30.92 20.7867 30.2867 20.8 29.62C20.8133 28.9533 20.8267 28.2467 20.84 27.5C20.8667 26.74 20.8867 25.9333 20.9 25.08C20.9133 24.2133 20.92 23.2733 20.92 22.26C21.0933 22.26 21.3533 22.3133 21.7 22.42C22.0467 22.5133 22.3867 22.6267 22.72 22.76C23.0667 22.8933 23.3733 23.0333 23.64 23.18C23.9067 23.3133 24.0533 23.4267 24.08 23.52C23.9467 23.8933 23.8267 24.38 23.72 24.98C23.6267 25.58 23.5467 26.2467 23.48 26.98C23.4267 27.7133 23.3867 28.4867 23.36 29.3C23.3333 30.1133 23.32 30.92 23.32 31.72C23.32 32.32 23.3267 32.86 23.34 33.34C23.3533 33.8067 23.3667 34.2333 23.38 34.62C23.4067 34.9933 23.44 35.3467 23.48 35.68C23.52 36 23.5667 36.32 23.62 36.64C23.9933 35.5067 24.4 34.3733 24.84 33.24C25.2933 32.1067 25.7533 31.02 26.22 29.98C26.7 28.9267 27.1733 27.9467 27.64 27.04C28.1067 26.1333 28.5467 25.3467 28.96 24.68C29.3867 24 29.7667 23.4667 30.1 23.08C30.4333 22.68 30.7067 22.4667 30.92 22.44C31.0667 22.4667 31.22 22.5267 31.38 22.62C31.5533 22.7 31.7133 22.8 31.86 22.92C32.0067 23.04 32.14 23.1733 32.26 23.32C32.38 23.4667 32.4733 23.6133 32.54 23.76C32.0467 23.9333 31.5133 24.34 30.94 24.98C30.38 25.62 29.8133 26.3933 29.24 27.3C28.6667 28.1933 28.1067 29.1733 27.56 30.24C27.0267 31.2933 26.54 32.3267 26.1 33.34C25.6733 34.3533 25.3067 35.3 25 36.18C24.6933 37.06 24.4867 37.76 24.38 38.28Z" fill="#DBC4F0"/>
</svg>
